<?xml version="1.0" encoding="utf-8"?>
<!-- Generator: Adobe Illustrator 18.1.1, SVG Export Plug-In . SVG Version: 6.00 Build 0)  -->
<svg version="1.1" id="Layer_1" xmlns="http://www.w3.org/2000/svg" xmlns:xlink="http://www.w3.org/1999/xlink" x="0px" y="0px"
	 viewBox="230.3 184.3 115.8 207.4" enable-background="new 230.3 184.3 115.8 207.4" xml:space="preserve">
<path d="M259.7,288l82.9-82.9c7.5-7.5,2.3-20.7-8.6-20.7l0,0c-3.5,0-6.3,1.2-8.6,3.5l-91.6,91.6c-4.6,4.6-4.6,12.7,0,17.3l91.6,91.6
	c2.3,2.3,5.2,3.5,8.6,3.5l0,0c10.9,0,16.1-13.2,8.6-20.7L259.7,288"/>
<text transform="matrix(1 0 0 1 1.655523e-03 662.4032)" font-family="'HelveticaNeue-Bold'" font-size="28.8">Created by Guilhem</text>
<text transform="matrix(1 0 0 1 1.655523e-03 691.2047)" font-family="'HelveticaNeue-Bold'" font-size="28.8">from the Noun Project</text>
</svg>
